<?xml version="1.0" standalone="no"?><svg xmlns="http://www.w3.org/2000/svg" viewBox="0 0 1440 320"><path fill="#F7F0EA" fill-opacity="1" d="M0,96L11.4,90.7C22.9,85,46,75,69,90.7C91.4,107,114,149,137,176C160,203,183,213,206,229.3C228.6,245,251,267,274,272C297.1,277,320,267,343,250.7C365.7,235,389,213,411,218.7C434.3,224,457,256,480,245.3C502.9,235,526,181,549,154.7C571.4,128,594,128,617,128C640,128,663,128,686,149.3C708.6,171,731,213,754,208C777.1,203,800,149,823,160C845.7,171,869,245,891,240C914.3,235,937,149,960,112C982.9,75,1006,85,1029,74.7C1051.4,64,1074,32,1097,37.3C1120,43,1143,85,1166,85.3C1188.6,85,1211,43,1234,21.3C1257.1,0,1280,0,1303,32C1325.7,64,1349,128,1371,165.3C1394.3,203,1417,213,1429,218.7L1440,224L1440,320L1428.6,320C1417.1,320,1394,320,1371,320C1348.6,320,1326,320,1303,320C1280,320,1257,320,1234,320C1211.4,320,1189,320,1166,320C1142.9,320,1120,320,1097,320C1074.3,320,1051,320,1029,320C1005.7,320,983,320,960,320C937.1,320,914,320,891,320C868.6,320,846,320,823,320C800,320,777,320,754,320C731.4,320,709,320,686,320C662.9,320,640,320,617,320C594.3,320,571,320,549,320C525.7,320,503,320,480,320C457.1,320,434,320,411,320C388.6,320,366,320,343,320C320,320,297,320,274,320C251.4,320,229,320,206,320C182.9,320,160,320,137,320C114.3,320,91,320,69,320C45.7,320,23,320,11,320L0,320Z"></path></svg>